<svg height="480pt" viewBox="0 0 480.06321 480" width="480pt" xmlns="http://www.w3.org/2000/svg"><path d="m162.023438 24.03125h-106c-26.507813 0-48 21.492188-48 48 0 26.511719 21.492187 48 48 48h16c-17.671876 0-32 14.328125-32 32s14.328124 32 32 32h40c-17.671876 0-32 14.328125-32 32s14.328124 32 32 32h32c-17.671876 0-32 14.328125-32 32s14.328124 32 32 32h48c-8.835938 0-16 7.164062-16 16s7.164062 16 16 16h56c-8.835938 0-16 7.164062-16 16s7.164062 16 16 16h12c-8.835938 0-16 7.164062-16 16s7.164062 16 16 16h-24c-8.835938 0-16 7.164062-16 16s7.164062 16 16 16h-36c-8.835938 0-16 7.164062-16 16s7.164062 16 16 16h64c8.835937 0 16-7.164062 16-16s-7.164063-16-16-16h68c8.835937 0 16-7.164062 16-16s-7.164063-16-16-16h56c8.835937 0 16-7.164062 16-16s-7.164063-16-16-16h36c8.835937 0 16-7.164062 16-16s-7.164063-16-16-16h24c8.835937 0 16-7.164062 16-16s-7.164063-16-16-16h-32c17.671874 0 32-14.328125 32-32s-14.328126-32-32-32h-32c17.671874 0 32-14.328125 32-32s-14.328126-32-32-32h24c17.671874 0 32-14.328125 32-32s-14.328126-32-32-32h16c26.511718 0 48-21.488281 48-48 0-26.507812-21.488282-48-48-48h-95" fill="#92aeba"/><path d="m280.023438 8.03125h-64l-32 96h72l-22.59375 112 94.59375-144h-64zm0 0" fill="#ffa754"/><path d="m41.550781 126.136719c-10.089843 11.878906-12.359375 28.535156-5.820312 42.683593 6.542969 14.148438 20.707031 23.207032 36.292969 23.210938h8c-9.089844 12.121094-10.550782 28.335938-3.777344 41.890625 6.777344 13.550781 20.625 22.109375 35.777344 22.109375-9.089844 12.121094-10.550782 28.335938-3.777344 41.890625 6.777344 13.550781 20.625 22.109375 35.777344 22.109375h25.367187c-2.597656 7.347656-1.464844 15.496094 3.035156 21.859375 4.496094 6.359375 11.804688 10.140625 19.597657 10.140625h33.367187c-4.171875 11.796875 1.421875 24.820312 12.847656 29.921875-2.625 5.683594-2.929687 12.171875-.847656 18.078125h-1.367187c-7.792969 0-15.101563 3.78125-19.597657 10.140625-4.5 6.363281-5.632812 14.511719-3.035156 21.859375h-13.367187c-13.253907 0-24 10.746094-24 24s10.746093 24 24 24h64c7.792968 0 15.101562-3.78125 19.597656-10.140625 4.5-6.363281 5.632812-14.511719 3.035156-21.859375h45.367188c7.792968 0 15.101562-3.78125 19.597656-10.140625 4.5-6.363281 5.632812-14.511719 3.035156-21.859375h33.367188c7.792968 0 15.101562-3.78125 19.597656-10.140625 4.5-6.363281 5.632812-14.511719 3.035156-21.859375h13.367188c7.792968 0 15.101562-3.78125 19.597656-10.140625 4.5-6.363281 5.632812-14.511719 3.035156-21.859375h1.367188c13.253906 0 24-10.746094 24-24s-10.746094-24-24-24c9.089843-12.121094 10.554687-28.335938 3.777343-41.886719-6.777343-13.554687-20.625-22.113281-35.777343-22.113281 10.882812-14.476562 10.664062-34.464844-.535157-48.695312 13.992188-2.65625 25.515625-12.550782 30.257813-25.980469 4.742187-13.429688 1.988281-28.367188-7.234375-39.21875 27.167969-7.257813 44.742187-33.53125 41.074219-61.410157-3.667969-27.878906-27.441407-48.714843-55.5625-48.695312h-95c-4.417969 0-8 3.582031-8 8s3.582031 8 8 8h95c22.089843 0 40 17.910156 40 40s-17.910157 40-40 40h-16c-4.417969 0-8 3.582031-8 8s3.582031 8 8 8c13.253906 0 24 10.746094 24 24s-10.746094 24-24 24h-24c-4.417969 0-8 3.582031-8 8s3.582031 8 8 8c13.253906 0 24 10.746094 24 24s-10.746094 24-24 24c-4.417969 0-8 3.582031-8 8s3.582031 8 8 8h32c13.253906 0 24 10.746094 24 24s-10.746094 24-24 24c-4.417969 0-8 3.582031-8 8s3.582031 8 8 8h32c4.417968 0 8 3.582031 8 8s-3.582032 8-8 8h-24c-4.417969 0-8 3.582031-8 8s3.582031 8 8 8c4.417968 0 8 3.582031 8 8s-3.582032 8-8 8h-36c-4.417969 0-8 3.582031-8 8s3.582031 8 8 8c4.417968 0 8 3.582031 8 8s-3.582032 8-8 8h-56c-4.417969 0-8 3.582031-8 8s3.582031 8 8 8c4.417968 0 8 3.582031 8 8s-3.582032 8-8 8h-68c-4.417969 0-8 3.582031-8 8s3.582031 8 8 8c4.417968 0 8 3.582031 8 8s-3.582032 8-8 8h-64c-4.417969 0-8-3.582031-8-8s3.582031-8 8-8h36c4.417968 0 8-3.582031 8-8s-3.582032-8-8-8c-4.417969 0-8-3.582031-8-8s3.582031-8 8-8h24c4.417968 0 8-3.582031 8-8s-3.582032-8-8-8c-4.417969 0-8-3.582031-8-8s3.582031-8 8-8c4.417968 0 8-3.582031 8-8s-3.582032-8-8-8h-12c-4.417969 0-8-3.582031-8-8s3.582031-8 8-8c4.417968 0 8-3.582031 8-8s-3.582032-8-8-8h-56c-4.417969 0-8-3.582031-8-8s3.582031-8 8-8c4.417968 0 8-3.582031 8-8s-3.582032-8-8-8h-48c-13.253907 0-24-10.746094-24-24s10.746093-24 24-24c4.417968 0 8-3.582031 8-8s-3.582032-8-8-8h-32c-13.253907 0-24-10.746094-24-24s10.746093-24 24-24c4.417968 0 8-3.582031 8-8s-3.582032-8-8-8h-40c-13.253907 0-24-10.746094-24-24s10.746093-24 24-24c4.417968 0 8-3.582031 8-8s-3.582032-8-8-8h-16c-22.089844 0-40-17.910156-40-40s17.910156-40 40-40h106c4.417968 0 8-3.582031 8-8s-3.582032-8-8-8h-106c-28.117188-.011719-51.882813 20.828125-55.546876 48.703125-3.664062 27.875 13.910157 54.148437 41.074219 61.402344zm0 0"/><path d="m230.421875 223.429688c.964844.398437 2 .605468 3.042969.601562 2.695312 0 5.207031-1.355469 6.6875-3.609375l94.582031-144c1.617187-2.460937 1.75-5.609375.347656-8.199219-1.402343-2.589844-4.113281-4.199218-7.058593-4.191406h-53.75l13.511718-54.054688c.597656-2.390624.0625-4.925781-1.453125-6.867187-1.519531-1.941406-3.84375-3.078125-6.308593-3.078125h-64c-3.441407.0039062-6.496094 2.207031-7.582032 5.472656l-32 96c-.8125 2.4375-.40625 5.117188 1.097656 7.203125 1.5 2.085938 3.914063 3.324219 6.484376 3.324219h62.222656l-20.621094 102.398438c-.769531 3.765624 1.246094 7.542968 4.796875 9zm-35.292969-127.398438 26.664063-80h48l-13.53125 54.054688c-.597657 2.390624-.0625 4.925781 1.457031 6.867187 1.515625 1.941406 3.839844 3.078125 6.304688 3.078125h49.167968l-63.734375 97.039062 14.398438-71.453124c.476562-2.351563-.128907-4.792969-1.648438-6.648438-1.515625-1.855469-3.785156-2.933594-6.183593-2.9375zm0 0"/></svg>