<svg height="479pt" viewBox="0 -8 479.60456 479" width="479pt" xmlns="http://www.w3.org/2000/svg"><path d="m375.605469 296.3125h8c33.539062.003906 64.164062-19.058594 78.96875-49.152344 14.808593-30.09375 11.21875-65.988281-9.253907-92.558594-20.472656-26.566406-54.265624-39.1875-87.140624-32.542968-4.324219-21.582032-18.304688-39.992188-37.929688-49.957032-19.628906-9.964843-42.742188-10.386718-62.71875-1.140624-18.078125-49.792969-73.101562-75.507813-122.898438-57.425782-49.796874 18.078125-75.507812 73.101563-57.429687 122.898438-43.621094 1.378906-78.078125 37.480468-77.421875 81.121094.652344 43.636718 36.179688 78.691406 79.824219 78.757812" fill="#d0dad9"/><g fill="#60a2d7"><path d="m135.605469 204.3125c8.835937 0 16 7.164062 16 16v192c0 8.839844-7.164063 16-16 16-8.835938 0-16-7.160156-16-16v-192c0-8.835938 7.164062-16 16-16zm0 0"/><path d="m199.605469 184.3125c8.835937 0 16 7.164062 16 16v240c0 8.839844-7.164063 16-16 16-8.835938 0-16-7.160156-16-16v-240c0-8.835938 7.164062-16 16-16zm0 0"/><path d="m263.605469 208.3125c8.835937 0 16 7.164062 16 16v192c0 8.839844-7.164063 16-16 16-8.835938 0-16-7.160156-16-16v-192c0-8.835938 7.164062-16 16-16zm0 0"/><path d="m327.605469 184.3125c8.835937 0 16 7.164062 16 16v240c0 8.839844-7.164063 16-16 16-8.835938 0-16-7.160156-16-16v-240c0-8.835938 7.164062-16 16-16zm0 0"/></g><path d="m383.605469 112.3125c-3.832031.003906-7.660157.234375-11.464844.691406-10.324219-33.632812-41.355469-56.617187-76.535156-56.691406-8.757813-.007812-17.453125 1.445312-25.730469 4.296875-20.488281-44.300781-69.042969-68.378906-116.707031-57.871094-47.667969 10.507813-81.597657 52.765625-81.5625 101.574219.003906 8.433594 1.054687 16.835938 3.117187 25.007812-45.414062 6.933594-77.859375 47.636719-74.484375 93.453126 3.371094 45.820312 41.425781 81.335937 87.367188 81.539062 4.417969 0 8-3.578125 8-8 0-4.417969-3.582031-8-8-8-39.441407.167969-71.660157-31.445312-72.246094-70.882812-.585937-39.433594 30.683594-71.992188 70.109375-72.996094 2.554688-.078125 4.921875-1.371094 6.363281-3.484375 1.445313-2.109375 1.789063-4.785157.933594-7.195313-15.609375-45.363281 8.027344-94.863281 53.117187-111.238281 45.09375-16.375 94.984376 6.421875 112.121094 51.230469.777344 2.089844 2.386719 3.761718 4.449219 4.613281s4.382813.800781 6.40625-.132813c8.378906-3.894531 17.507813-5.914062 26.746094-5.914062 30.4375.054688 56.648437 21.496094 62.726562 51.320312.871094 4.335938 5.09375 7.140626 9.425781 6.265626 29.882813-6.039063 60.601563 5.4375 79.210938 29.585937 18.605469 24.152344 21.871094 56.78125 8.414062 84.136719-13.453124 27.359375-41.289062 44.691406-71.777343 44.691406h-8c-4.417969 0-8 3.582031-8 8 0 4.421875 3.582031 8 8 8h8c53.019531 0 96-42.980469 96-96s-42.980469-96-96-96zm0 0"/><path d="m159.605469 412.3125v-192c0-13.253906-10.746094-24-24-24-13.253907 0-24 10.746094-24 24v192c0 13.257812 10.746093 24 24 24 13.253906 0 24-10.742188 24-24zm-32 0v-192c0-4.417969 3.582031-8 8-8s8 3.582031 8 8v192c0 4.421875-3.582031 8-8 8s-8-3.578125-8-8zm0 0"/><path d="m223.605469 440.3125v-240c0-13.253906-10.746094-24-24-24-13.253907 0-24 10.746094-24 24v240c0 13.257812 10.746093 24 24 24 13.253906 0 24-10.742188 24-24zm-32 0v-240c0-4.417969 3.582031-8 8-8s8 3.582031 8 8v240c0 4.421875-3.582031 8-8 8s-8-3.578125-8-8zm0 0"/><path d="m287.605469 416.3125v-192c0-13.253906-10.746094-24-24-24-13.253907 0-24 10.746094-24 24v192c0 13.257812 10.746093 24 24 24 13.253906 0 24-10.742188 24-24zm-32 0v-192c0-4.417969 3.582031-8 8-8s8 3.582031 8 8v192c0 4.421875-3.582031 8-8 8s-8-3.578125-8-8zm0 0"/><path d="m351.605469 440.3125v-240c0-13.253906-10.746094-24-24-24-13.253907 0-24 10.746094-24 24v240c0 13.257812 10.746093 24 24 24 13.253906 0 24-10.742188 24-24zm-32 0v-240c0-4.417969 3.582031-8 8-8s8 3.582031 8 8v240c0 4.421875-3.582031 8-8 8s-8-3.578125-8-8zm0 0"/></svg>