<svg height="480pt" viewBox="0 0 480 480.09511" width="480pt" xmlns="http://www.w3.org/2000/svg"><path d="m418.617188 216.648438c-56.949219-.660157-102.601563-47.332032-102-104.28125.3125-43.863282 27.214843-83.152344 68-99.304688-14.238282-3.839844-28.976563-5.515625-43.710938-4.96875-78.65625.878906-141.714844 65.34375-140.859375 144-.855469 78.65625 62.203125 143.121094 140.859375 144 59.53125.273438 112.472656-37.8125 131.140625-94.34375-15.878906 10.285156-34.519531 15.480469-53.429687 14.898438zm0 0" fill="#fce666"/><path d="m384.046875 296.09375c-5.851563 0-11.6875.585938-17.421875 1.746094-4.324219-21.582032-18.304688-39.996094-37.933594-49.957032-19.625-9.964843-42.738281-10.386718-62.714844-1.140624-18.078124-49.796876-73.105468-75.507813-122.898437-57.425782-49.796875 18.078125-75.507813 73.101563-57.429687 122.898438-43.621094 1.378906-78.082032 37.480468-77.425782 81.121094.65625 43.636718 36.183594 78.691406 79.824219 78.757812h296c48.601563 0 88-39.398438 88-88s-39.398437-88-88-88zm0 0" fill="#a3d4f7"/><path d="m416.046875 122.429688 24.722656 13.664062-4.722656-28.941406 20-20.496094-27.636719-4.226562-12.363281-26.335938-12.359375 26.335938-27.640625 4.226562 20 20.496094-4.71875 28.941406zm0 0" fill="#ffde3d"/><path d="m.046875 392.09375c.058594 48.578125 39.425781 87.945312 88 88h296c49.175781-.011719 90.390625-37.183594 95.460937-86.097656 5.074219-48.914063-27.636718-93.75-75.761718-103.851563 35.902344-17.085937 63.296875-48.0625 75.863281-85.785156 1.113281-3.238281.042969-6.824219-2.660156-8.921875-2.703125-2.101562-6.441407-2.246094-9.300781-.367188-14.578126 9.421876-31.683594 14.167969-49.03125 13.601563-52.515626-.695313-94.5625-43.757813-94-96.273437.335937-40.542969 25.175781-76.847657 62.839843-91.855469 3.183594-1.203125 5.257813-4.289063 5.167969-7.691407-.085938-3.402343-2.320312-6.375-5.558594-7.414062-15.035156-4.085938-30.59375-5.886719-46.160156-5.34375-44.320312.726562-86.089844 20.84375-114.285156 55.042969-28.199219 34.195312-39.984375 79.035156-32.253906 122.679687-6.042969-1.125-12.171876-1.699218-18.320313-1.722656-57.410156.066406-103.933594 46.589844-104 104 .007813 8.433594 1.054687 16.832031 3.121094 25.007812-43.253907 6.167969-75.320313 43.304688-75.121094 86.992188zm211.472656-209.742188c-2.269531-9.925781-3.433593-20.074218-3.472656-30.257812-.773437-74.203125 58.65625-135.035156 132.859375-136 6.160156 0 12.75.121094 19.292969.640625-31.878907 21.453125-51.167969 57.214844-51.582031 95.640625-.546876 61.347656 48.65625 111.566406 110 112.273438 12.730468.195312 25.394531-1.828126 37.429687-5.976563-17.257813 33.375-48.3125 57.480469-84.925781 65.925781-.65625-1.796875-1.382813-3.566406-2.167969-5.300781-.105469-.21875-.191406-.441406-.296875-.664063-.703125-1.515624-1.453125-3-2.246094-4.457031-.242187-.449219-.472656-.886719-.722656-1.328125-.695312-1.234375-1.429688-2.402344-2.191406-3.625-.40625-.640625-.800782-1.28125-1.246094-1.910156-.65625-.96875-1.328125-1.914062-2.027344-2.847656-.605468-.800782-1.222656-1.601563-1.855468-2.402344-.628907-.800781-1.191407-1.457031-1.796876-2.160156-.808593-.933594-1.636718-1.847656-2.488281-2.742188-.511719-.535156-1.027343-1.074218-1.554687-1.601562-.996094-.996094-2.027344-1.96875-3.085938-2.910156-.441406-.402344-.871094-.800782-1.320312-1.175782-1.183594-1.015625-2.402344-1.984375-3.632813-2.929687-.375-.289063-.75-.582031-1.136719-.863281-1.328124-.976563-2.683593-1.90625-4.070312-2.792969l-1.03125-.671875c-1.433594-.886719-2.90625-1.726563-4.394531-2.527344l-1.015625-.558594c-1.503906-.800781-3.046875-1.503906-4.605469-2.195312-.355469-.160156-.707031-.328125-1.066406-.476563-1.542969-.65625-3.121094-1.242187-4.703125-1.800781-.410156-.144531-.800782-.304688-1.207032-.441406-1.546874-.511719-3.113281-.960938-4.6875-1.375-.480468-.128906-.945312-.28125-1.425781-.402344-1.535156-.375-3.089843-.679688-4.648437-.957031-.535156-.105469-1.0625-.234375-1.597656-.320313-1.601563-.257812-3.160157-.433594-4.761719-.59375-.542969-.054687-1.070313-.144531-1.601563-.191406-2.167968-.183594-4.320312-.28125-6.488281-.28125-8.753906-.003906-17.445313 1.445312-25.726563 4.289062-1.335937-2.863281-2.832031-5.601562-4.398437-8.320312-.351563-.605469-.722656-1.191406-1.082031-1.792969-1.390625-2.28125-2.859375-4.5-4.398438-6.65625-.296875-.40625-.578125-.796875-.871094-1.230469-1.890624-2.535156-3.867187-4.992187-5.960937-7.335937-.28125-.3125-.578125-.601563-.863281-.910156-1.761719-1.925781-3.589844-3.792969-5.488282-5.601563-.679687-.640625-1.359374-1.273437-2.058593-1.894531-1.699219-1.523437-3.445313-2.980469-5.238281-4.378906-.800782-.636719-1.601563-1.285157-2.457032-1.902344-2.007812-1.480469-4.0625-2.871094-6.167968-4.207031-1.261719-.800782-2.558594-1.539063-3.855469-2.289063-1.296875-.753906-2.398438-1.359375-3.679688-2.007812-1.433593-.746094-2.855469-1.496094-4.320312-2.175781-1.601563-.753907-3.3125-1.433594-4.984375-2.105469-1-.367188-1.960938-.847657-2.976563-1.222657zm-125.597656 137.863282c2.558594-.070313 4.929687-1.363282 6.375-3.476563s1.792969-4.789062.9375-7.203125c-11.417969-31.714844-3.65625-67.164062 19.972656-91.203125 23.625-24.042969 58.933594-32.417969 90.839844-21.558593 2.035156.683593 4 1.449218 5.992187 2.273437 1.183594.5 2.355469 1.035156 3.511719 1.601563 1.753907.796874 3.464844 1.726562 5.152344 2.671874 1.21875.679688 2.402344 1.382813 3.609375 2.125 1.824219 1.136719 3.617188 2.328126 5.351562 3.601563.800782.578125 1.601563 1.175781 2.402344 1.785156 2.222656 1.742188 4.40625 3.542969 6.460938 5.496094.097656.085937.183594.191406.273437.277344 2.097657 2.007812 4.0625 4.136719 5.960938 6.335937.390625.464844.796875.929688 1.175781 1.394532 3.839844 4.667968 7.195312 9.71875 10.007812 15.070312.3125.601562.625 1.207031.925782 1.816406 1.363281 2.707032 2.578125 5.484375 3.648437 8.320313 1.1875 3.191406 4.261719 5.277343 7.664063 5.207031 1.105468-.015625 2.195312-.261719 3.199218-.726562 8.355469-3.886719 17.453126-5.910157 26.664063-5.929688 1.867187 0 3.714844.089844 5.546875.25.488281.039062.957031.128906 1.4375.183594 1.34375.144531 2.6875.296875 4 .527344.503906.089843 1 .222656 1.496094.320312 1.289062.265625 2.578125.519531 3.832031.855469.472656.128906.929687.289062 1.402344.425781 1.269531.367188 2.542969.75 3.789062 1.191406.425781.160156.851563.34375 1.273438.503906 1.257812.480469 2.496093.976563 3.710937 1.535157.417969.183593.800782.402343 1.226563.601562 1.199219.574219 2.398437 1.167969 3.535156 1.816407.421875.238281.800781.503906 1.253906.75 1.097657.648437 2.1875 1.320312 3.242188 2.03125.457031.3125.902343.640624 1.351562.960937.96875.695313 1.929688 1.398437 2.855469 2.144531.511719.40625 1.007812.800782 1.503906 1.265625.800782.6875 1.601563 1.390625 2.402344 2.125.582031.546875 1.140625 1.105469 1.703125 1.671875.558594.570313 1.253906 1.296875 1.863281 1.96875s1.28125 1.457032 1.894532 2.199219c.457031.554687.90625 1.105469 1.335937 1.664063.707031.917968 1.390625 1.859374 2.058594 2.824218.285156.417969.566406.800782.839843 1.257813.742188 1.144531 1.464844 2.304687 2.136719 3.496093l.429688.800782c.746093 1.367187 1.449219 2.757812 2.097656 4.183594l.136719.300781c1.4375 3.222656 2.609375 6.558593 3.503906 9.96875.292969 1.160156.621094 2.304687.855469 3.488281.871093 4.332031 5.089843 7.136719 9.421875 6.265625 5.222656-1.046875 10.539062-1.574219 15.863281-1.578125 44.183594 0 80 35.820312 80 80 0 44.183594-35.816406 80-80 80h-296c-39.441406.171875-71.667969-31.441406-72.253906-70.878906-.589844-39.4375 30.683593-71.996094 70.113281-73zm0 0"/><path d="m463.632812 84.09375c-.957031-2.847656-3.429687-4.921875-6.398437-5.367188l-23.417969-3.574218-10.527344-22.457032c-1.320312-2.804687-4.140624-4.597656-7.242187-4.597656-3.097656 0-5.917969 1.792969-7.238281 4.597656l-10.550782 22.472657-23.417968 3.574219c-2.964844.453124-5.425782 2.523437-6.378906 5.367187-.953126 2.84375-.234376 5.984375 1.859374 8.128906l17.183594 17.601563-4.070312 24.960937c-.496094 3.023438.78125 6.0625 3.289062 7.828125 2.503906 1.761719 5.796875 1.941406 8.476563.457032l20.847656-11.511719 20.851563 11.519531c2.679687 1.484375 5.972656 1.304688 8.476562-.457031 2.503906-1.765625 3.78125-4.804688 3.289062-7.828125l-4.070312-24.960938 17.183594-17.601562c2.101562-2.152344 2.820312-5.300782 1.855468-8.152344zm-33.3125 17.457031c-1.773437 1.816407-2.574218 4.367188-2.167968 6.871094l2.070312 12.6875-10.300781-5.695313c-2.410156-1.332031-5.335937-1.332031-7.746094 0l-10.304687 5.695313 2.074218-12.6875c.40625-2.503906-.398437-5.054687-2.167968-6.871094l-9.128906-9.351562 12.25-1.871094c2.636718-.40625 4.898437-2.097656 6.03125-4.511719l5.117187-10.890625 5.121094 10.90625c1.132812 2.414063 3.394531 4.105469 6.03125 4.511719l12.25 1.871094zm0 0"/></svg>