<svg height="479pt" viewBox="0 -52 479.61325 479" width="479pt" xmlns="http://www.w3.org/2000/svg"><path d="m375.605469 296.300781h8c33.539062.003907 64.164062-19.058593 78.96875-49.152343 14.808593-30.097657 11.21875-65.992188-9.253907-92.558594-20.472656-26.566406-54.265624-39.1875-87.140624-32.542969-4.324219-21.585937-18.304688-39.996094-37.929688-49.960937-19.628906-9.964844-42.742188-10.382813-62.71875-1.136719-18.078125-49.796875-73.101562-75.507813-122.898438-57.429688-49.796874 18.082031-75.507812 73.105469-57.429687 122.902344-43.621094 1.378906-78.078125 37.480469-77.421875 81.121094.652344 43.636719 36.179688 78.691406 79.824219 78.757812" fill="#a3d4f7"/><g fill="#92aeba"><path d="m327.605469 328.300781h-80c-4.417969 0-8-3.582031-8-8s3.582031-8 8-8h80c4.417969 0 8 3.582031 8 8s-3.582031 8-8 8zm0 0"/><path d="m167.605469 328.300781h-64c-4.417969 0-8-3.582031-8-8s3.582031-8 8-8h64c4.417969 0 8 3.582031 8 8s-3.582031 8-8 8zm0 0"/><path d="m215.605469 328.300781h-16c-4.417969 0-8-3.582031-8-8s3.582031-8 8-8h16c4.417969 0 8 3.582031 8 8s-3.582031 8-8 8zm0 0"/><path d="m231.605469 376.300781h-96c-4.417969 0-8-3.582031-8-8s3.582031-8 8-8h96c4.417969 0 8 3.582031 8 8s-3.582031 8-8 8zm0 0"/><path d="m359.605469 376.300781h-32c-4.417969 0-8-3.582031-8-8s3.582031-8 8-8h32c4.417969 0 8 3.582031 8 8s-3.582031 8-8 8zm0 0"/><path d="m295.605469 376.300781h-32c-4.417969 0-8-3.582031-8-8s3.582031-8 8-8h32c4.417969 0 8 3.582031 8 8s-3.582031 8-8 8zm0 0"/><path d="m327.605469 232.300781h-80c-4.417969 0-8-3.582031-8-8s3.582031-8 8-8h80c4.417969 0 8 3.582031 8 8s-3.582031 8-8 8zm0 0"/><path d="m167.605469 232.300781h-64c-4.417969 0-8-3.582031-8-8s3.582031-8 8-8h64c4.417969 0 8 3.582031 8 8s-3.582031 8-8 8zm0 0"/><path d="m215.605469 232.300781h-16c-4.417969 0-8-3.582031-8-8s3.582031-8 8-8h16c4.417969 0 8 3.582031 8 8s-3.582031 8-8 8zm0 0"/><path d="m231.605469 280.300781h-96c-4.417969 0-8-3.582031-8-8s3.582031-8 8-8h96c4.417969 0 8 3.582031 8 8s-3.582031 8-8 8zm0 0"/><path d="m359.605469 280.300781h-32c-4.417969 0-8-3.582031-8-8s3.582031-8 8-8h32c4.417969 0 8 3.582031 8 8s-3.582031 8-8 8zm0 0"/><path d="m295.605469 280.300781h-32c-4.417969 0-8-3.582031-8-8s3.582031-8 8-8h32c4.417969 0 8 3.582031 8 8s-3.582031 8-8 8zm0 0"/></g><path d="m87.605469 304.300781c4.417969 0 8-3.582031 8-8s-3.582031-8-8-8c-39.441407.171875-71.667969-31.441406-72.257813-70.878906-.585937-39.4375 30.683594-71.996094 70.113282-73 2.558593-.074219 4.929687-1.363281 6.375-3.476563 1.449218-2.113281 1.796874-4.792968.9375-7.203124-15.878907-45.445313 7.742187-95.207032 52.988281-111.632813 45.246093-16.429687 95.292969 6.585937 112.265625 51.632813.777344 2.085937 2.386718 3.757812 4.445312 4.609374 2.0625.847657 4.378906.800782 6.402344-.128906 8.375-3.894531 17.496094-5.914062 26.730469-5.921875 30.4375.054688 56.648437 21.496094 62.734375 51.320313.871094 4.332031 5.09375 7.136718 9.425781 6.265625 29.882813-6.039063 60.601563 5.4375 79.210937 29.589843 18.609376 24.148438 21.871094 56.777344 8.414063 84.136719s-41.296875 44.6875-71.785156 44.6875h-8c-4.417969 0-8 3.582031-8 8s3.582031 8 8 8h8c35.671875.003907 68.402343-19.773437 84.992187-51.351562s14.304688-69.753907-5.9375-99.125c-20.242187-29.371094-55.101562-45.097657-90.519531-40.835938-10.320313-33.632812-41.355469-56.617187-76.535156-56.6875-8.757813-.003906-17.457031 1.449219-25.738281 4.296875-20.492188-44.292968-69.042969-68.359375-116.699219-57.855468-47.660157 10.507812-81.589844 52.757812-81.5625 101.558593.003906 8.433594 1.054687 16.832031 3.117187 25.007813-45.414062 6.929687-77.859375 47.632812-74.484375 93.453125 3.371094 45.820312 41.425781 81.332031 87.367188 81.539062zm0 0"/><path d="m335.605469 320.300781c0-4.417969-3.582031-8-8-8h-80c-4.417969 0-8 3.582031-8 8s3.582031 8 8 8h80c4.417969 0 8-3.582031 8-8zm0 0"/><path d="m103.605469 328.300781h64c4.417969 0 8-3.582031 8-8s-3.582031-8-8-8h-64c-4.417969 0-8 3.582031-8 8s3.582031 8 8 8zm0 0"/><path d="m215.605469 328.300781c4.417969 0 8-3.582031 8-8s-3.582031-8-8-8h-16c-4.417969 0-8 3.582031-8 8s3.582031 8 8 8zm0 0"/><path d="m135.605469 376.300781h96c4.417969 0 8-3.582031 8-8s-3.582031-8-8-8h-96c-4.417969 0-8 3.582031-8 8s3.582031 8 8 8zm0 0"/><path d="m327.605469 376.300781h32c4.417969 0 8-3.582031 8-8s-3.582031-8-8-8h-32c-4.417969 0-8 3.582031-8 8s3.582031 8 8 8zm0 0"/><path d="m303.605469 368.300781c0-4.417969-3.582031-8-8-8h-32c-4.417969 0-8 3.582031-8 8s3.582031 8 8 8h32c4.417969 0 8-3.582031 8-8zm0 0"/><path d="m335.605469 224.300781c0-4.417969-3.582031-8-8-8h-80c-4.417969 0-8 3.582031-8 8s3.582031 8 8 8h80c4.417969 0 8-3.582031 8-8zm0 0"/><path d="m103.605469 232.300781h64c4.417969 0 8-3.582031 8-8s-3.582031-8-8-8h-64c-4.417969 0-8 3.582031-8 8s3.582031 8 8 8zm0 0"/><path d="m215.605469 232.300781c4.417969 0 8-3.582031 8-8s-3.582031-8-8-8h-16c-4.417969 0-8 3.582031-8 8s3.582031 8 8 8zm0 0"/><path d="m231.605469 264.300781h-96c-4.417969 0-8 3.582031-8 8s3.582031 8 8 8h96c4.417969 0 8-3.582031 8-8s-3.582031-8-8-8zm0 0"/><path d="m359.605469 264.300781h-32c-4.417969 0-8 3.582031-8 8s3.582031 8 8 8h32c4.417969 0 8-3.582031 8-8s-3.582031-8-8-8zm0 0"/><path d="m263.605469 264.300781c-4.417969 0-8 3.582031-8 8s3.582031 8 8 8h32c4.417969 0 8-3.582031 8-8s-3.582031-8-8-8zm0 0"/></svg>